# xmcd
#
# Track frame offsets: 
#        150
#        19690
#        44437
#        64369
#        84532
#        107644
#        123497
#        149149
#        172971
#        190953
#        208101
#        229282
#        248584
#
# Disc length: 3629 seconds
#
# Revision: 0
# Processed by: cddbd v1.5.2PL0 Copyright (c) Steve Scherf et al.
# Submitted via: ExactAudioCopyFreeDBPlugin 1.0
#
DISCID=be0e2b0d
DTITLE=Dan Truong - Uot Lem Cho Doi - Vol.21
DYEAR=2009
DGENRE=Blues
TTITLE0=Tieng Ru Ngay Xua
TTITLE1=Uot Lem Cho Doi
TTITLE2=Em Bo Sau Lung
TTITLE3=Chi Co Ban Be
TTITLE4=Ngoai Toi
TTITLE5=Hoang Tu Trong Mo
TTITLE6=Bau Oi
TTITLE7=Nhung Neo Duong Ca Hat
TTITLE8=Thao Thuc Vi Em
TTITLE9=Gia Tu Dem Mua
TTITLE10=Tup Leu Ly Tuong
TTITLE11=Duyen Kiep
TTITLE12=Day Dung Dinh Buon
EXTD=
EXTT0=
EXTT1=
EXTT2=
EXTT3=
EXTT4=
EXTT5=
EXTT6=
EXTT7=
EXTT8=
EXTT9=
EXTT10=
EXTT11=
EXTT12=
PLAYORDER=
